<svg width="272" height="64" viewBox="0 0 272 64" fill="none" xmlns="http://www.w3.org/2000/svg">
<path d="M13.5378 44V18.8H18.1458V44H13.5378ZM22.922 44V26.144H26.99L27.35 29.168C27.902 28.112 28.694 27.272 29.726 26.648C30.782 26.024 32.018 25.712 33.434 25.712C35.642 25.712 37.358 26.408 38.582 27.8C39.806 29.192 40.418 31.232 40.418 33.92V44H35.81V34.352C35.81 32.816 35.498 31.64 34.874 30.824C34.25 30.008 33.278 29.6 31.958 29.6C30.662 29.6 29.594 30.056 28.754 30.968C27.938 31.88 27.53 33.152 27.53 34.784V44H22.922ZM49.4726 44L42.9206 26.144H47.7446L52.2806 39.644L56.8166 26.144H61.6406L55.0526 44H49.4726ZM72.3441 44.432C70.5441 44.432 68.9481 44.048 67.5561 43.28C66.1641 42.512 65.0721 41.432 64.2801 40.04C63.4881 38.648 63.0921 37.04 63.0921 35.216C63.0921 33.368 63.4761 31.724 64.2441 30.284C65.0361 28.844 66.1161 27.728 67.4841 26.936C68.8761 26.12 70.5081 25.712 72.3801 25.712C74.1321 25.712 75.6801 26.096 77.0241 26.864C78.3681 27.632 79.4121 28.688 80.1561 30.032C80.9241 31.352 81.3081 32.828 81.3081 34.46C81.3081 34.724 81.2961 35 81.2721 35.288C81.2721 35.576 81.2601 35.876 81.2361 36.188H67.6641C67.7601 37.58 68.2401 38.672 69.1041 39.464C69.9921 40.256 71.0601 40.652 72.3081 40.652C73.2441 40.652 74.0241 40.448 74.6481 40.04C75.2961 39.608 75.7761 39.056 76.0881 38.384H80.7681C80.4321 39.512 79.8681 40.544 79.0761 41.48C78.3081 42.392 77.3481 43.112 76.1961 43.64C75.0681 44.168 73.7841 44.432 72.3441 44.432ZM72.3801 29.456C71.2521 29.456 70.2561 29.78 69.3921 30.428C68.5281 31.052 67.9761 32.012 67.7361 33.308H76.6281C76.5561 32.132 76.1241 31.196 75.3321 30.5C74.5401 29.804 73.5561 29.456 72.3801 29.456ZM92.5638 44.432C90.9798 44.432 89.5878 44.18 88.3878 43.676C87.1878 43.148 86.2278 42.428 85.5078 41.516C84.7878 40.604 84.3558 39.548 84.2118 38.348H88.8558C88.9998 39.044 89.3838 39.644 90.0078 40.148C90.6558 40.628 91.4838 40.868 92.4918 40.868C93.4998 40.868 94.2318 40.664 94.6878 40.256C95.1678 39.848 95.4078 39.38 95.4078 38.852C95.4078 38.084 95.0718 37.568 94.3998 37.304C93.7278 37.016 92.7918 36.74 91.5918 36.476C90.8238 36.308 90.0438 36.104 89.2518 35.864C88.4598 35.624 87.7278 35.324 87.0558 34.964C86.4078 34.58 85.8798 34.1 85.4718 33.524C85.0638 32.924 84.8598 32.192 84.8598 31.328C84.8598 29.744 85.4838 28.412 86.7318 27.332C88.0038 26.252 89.7798 25.712 92.0598 25.712C94.1718 25.712 95.8518 26.204 97.0998 27.188C98.3718 28.172 99.1278 29.528 99.3678 31.256H95.0118C94.7478 29.936 93.7518 29.276 92.0238 29.276C91.1598 29.276 90.4878 29.444 90.0078 29.78C89.5518 30.116 89.3238 30.536 89.3238 31.04C89.3238 31.568 89.6718 31.988 90.3678 32.3C91.0638 32.612 91.9878 32.9 93.1398 33.164C94.3878 33.452 95.5278 33.776 96.5598 34.136C97.6158 34.472 98.4558 34.988 99.0798 35.684C99.7038 36.356 100.016 37.328 100.016 38.6C100.04 39.704 99.7518 40.7 99.1518 41.588C98.5518 42.476 97.6878 43.172 96.5598 43.676C95.4318 44.18 94.0998 44.432 92.5638 44.432ZM111.491 44C109.619 44 108.119 43.544 106.991 42.632C105.863 41.72 105.299 40.1 105.299 37.772V29.996H102.239V26.144H105.299L105.839 21.356H109.907V26.144H114.731V29.996H109.907V37.808C109.907 38.672 110.087 39.272 110.447 39.608C110.831 39.92 111.479 40.076 112.391 40.076H114.623V44H111.491ZM127.04 44.432C125.192 44.432 123.584 44.096 122.216 43.424C120.848 42.752 119.792 41.816 119.048 40.616C118.304 39.416 117.932 38.024 117.932 36.44H121.1C121.1 37.424 121.328 38.336 121.784 39.176C122.24 39.992 122.9 40.652 123.764 41.156C124.652 41.636 125.744 41.876 127.04 41.876C128.744 41.876 130.064 41.468 131 40.652C131.936 39.836 132.404 38.816 132.404 37.592C132.404 36.584 132.188 35.78 131.756 35.18C131.324 34.556 130.736 34.052 129.992 33.668C129.272 33.284 128.432 32.948 127.472 32.66C126.536 32.372 125.552 32.048 124.52 31.688C122.576 31.016 121.136 30.188 120.2 29.204C119.264 28.196 118.796 26.888 118.796 25.28C118.772 23.936 119.084 22.748 119.732 21.716C120.38 20.66 121.292 19.844 122.468 19.268C123.668 18.668 125.084 18.368 126.716 18.368C128.324 18.368 129.716 18.668 130.892 19.268C132.092 19.868 133.016 20.696 133.664 21.752C134.336 22.808 134.684 24.008 134.708 25.352H131.54C131.54 24.656 131.36 23.972 131 23.3C130.64 22.604 130.088 22.04 129.344 21.608C128.624 21.176 127.712 20.96 126.608 20.96C125.24 20.936 124.112 21.284 123.224 22.004C122.36 22.724 121.928 23.72 121.928 24.992C121.928 26.072 122.228 26.9 122.828 27.476C123.452 28.052 124.316 28.532 125.42 28.916C126.524 29.276 127.796 29.696 129.236 30.176C130.436 30.608 131.516 31.112 132.476 31.688C133.436 32.264 134.18 33.008 134.708 33.92C135.26 34.832 135.536 35.996 135.536 37.412C135.536 38.612 135.224 39.752 134.6 40.832C133.976 41.888 133.028 42.752 131.756 43.424C130.508 44.096 128.936 44.432 127.04 44.432ZM145.584 44.432C144.096 44.432 142.86 44.18 141.876 43.676C140.892 43.172 140.16 42.5 139.68 41.66C139.2 40.82 138.96 39.908 138.96 38.924C138.96 37.1 139.656 35.696 141.048 34.712C142.44 33.728 144.336 33.236 146.736 33.236H151.56V33.02C151.56 31.46 151.152 30.284 150.336 29.492C149.52 28.676 148.428 28.268 147.06 28.268C145.884 28.268 144.864 28.568 144 29.168C143.16 29.744 142.632 30.596 142.416 31.724H139.32C139.44 30.428 139.872 29.336 140.616 28.448C141.384 27.56 142.332 26.888 143.46 26.432C144.588 25.952 145.788 25.712 147.06 25.712C149.556 25.712 151.428 26.384 152.676 27.728C153.948 29.048 154.584 30.812 154.584 33.02V44H151.884L151.704 40.796C151.2 41.804 150.456 42.668 149.472 43.388C148.512 44.084 147.216 44.432 145.584 44.432ZM146.052 41.876C147.204 41.876 148.188 41.576 149.004 40.976C149.844 40.376 150.48 39.596 150.912 38.636C151.344 37.676 151.56 36.668 151.56 35.612V35.576H146.988C145.212 35.576 143.952 35.888 143.208 36.512C142.488 37.112 142.128 37.868 142.128 38.78C142.128 39.716 142.464 40.472 143.136 41.048C143.832 41.6 144.804 41.876 146.052 41.876ZM159.121 44V26.144H161.857L162.037 29.348C162.613 28.22 163.441 27.332 164.521 26.684C165.601 26.036 166.825 25.712 168.193 25.712C170.305 25.712 171.985 26.36 173.233 27.656C174.505 28.928 175.141 30.896 175.141 33.56V44H172.117V33.884C172.117 30.164 170.581 28.304 167.509 28.304C165.973 28.304 164.689 28.868 163.657 29.996C162.649 31.1 162.145 32.684 162.145 34.748V44H159.121ZM187.822 44.432C186.046 44.432 184.486 44.024 183.142 43.208C181.822 42.392 180.79 41.276 180.046 39.86C179.326 38.444 178.966 36.836 178.966 35.036C178.966 33.236 179.338 31.64 180.082 30.248C180.826 28.832 181.858 27.728 183.178 26.936C184.498 26.12 186.058 25.712 187.858 25.712C189.322 25.712 190.618 26.012 191.746 26.612C192.874 27.212 193.75 28.052 194.374 29.132V18.08H197.398V44H194.662L194.374 41.048C193.798 41.912 192.97 42.692 191.89 43.388C190.81 44.084 189.454 44.432 187.822 44.432ZM188.146 41.804C189.346 41.804 190.402 41.528 191.314 40.976C192.25 40.4 192.97 39.608 193.474 38.6C194.002 37.592 194.266 36.416 194.266 35.072C194.266 33.728 194.002 32.552 193.474 31.544C192.97 30.536 192.25 29.756 191.314 29.204C190.402 28.628 189.346 28.34 188.146 28.34C186.97 28.34 185.914 28.628 184.978 29.204C184.066 29.756 183.346 30.536 182.818 31.544C182.314 32.552 182.062 33.728 182.062 35.072C182.062 36.416 182.314 37.592 182.818 38.6C183.346 39.608 184.066 40.4 184.978 40.976C185.914 41.528 186.97 41.804 188.146 41.804ZM211.868 44.432C210.404 44.432 209.096 44.132 207.944 43.532C206.816 42.932 205.952 42.092 205.352 41.012L205.064 44H202.328V18.08H205.352V29.096C205.928 28.232 206.744 27.452 207.8 26.756C208.88 26.06 210.248 25.712 211.904 25.712C213.68 25.712 215.228 26.12 216.548 26.936C217.868 27.752 218.888 28.868 219.608 30.284C220.352 31.7 220.724 33.308 220.724 35.108C220.724 36.908 220.352 38.516 219.608 39.932C218.888 41.324 217.856 42.428 216.512 43.244C215.192 44.036 213.644 44.432 211.868 44.432ZM211.544 41.804C212.744 41.804 213.8 41.528 214.712 40.976C215.624 40.4 216.344 39.608 216.872 38.6C217.4 37.592 217.664 36.416 217.664 35.072C217.664 33.728 217.4 32.552 216.872 31.544C216.344 30.536 215.624 29.756 214.712 29.204C213.8 28.628 212.744 28.34 211.544 28.34C210.344 28.34 209.288 28.628 208.376 29.204C207.464 29.756 206.744 30.536 206.216 31.544C205.688 32.552 205.424 33.728 205.424 35.072C205.424 36.416 205.688 37.592 206.216 38.6C206.744 39.608 207.464 40.4 208.376 40.976C209.288 41.528 210.344 41.804 211.544 41.804ZM233.069 44.432C231.389 44.432 229.877 44.048 228.533 43.28C227.189 42.512 226.121 41.432 225.329 40.04C224.561 38.624 224.177 36.968 224.177 35.072C224.177 33.176 224.573 31.532 225.365 30.14C226.157 28.724 227.225 27.632 228.569 26.864C229.937 26.096 231.461 25.712 233.141 25.712C234.821 25.712 236.333 26.096 237.677 26.864C239.021 27.632 240.077 28.724 240.845 30.14C241.637 31.532 242.033 33.176 242.033 35.072C242.033 36.968 241.637 38.624 240.845 40.04C240.053 41.432 238.973 42.512 237.605 43.28C236.261 44.048 234.749 44.432 233.069 44.432ZM233.069 41.84C234.101 41.84 235.061 41.588 235.949 41.084C236.837 40.58 237.557 39.824 238.109 38.816C238.661 37.808 238.937 36.56 238.937 35.072C238.937 33.584 238.661 32.336 238.109 31.328C237.581 30.32 236.873 29.564 235.985 29.06C235.097 28.556 234.149 28.304 233.141 28.304C232.109 28.304 231.149 28.556 230.261 29.06C229.373 29.564 228.653 30.32 228.101 31.328C227.549 32.336 227.273 33.584 227.273 35.072C227.273 36.56 227.549 37.808 228.101 38.816C228.653 39.824 229.361 40.58 230.225 41.084C231.113 41.588 232.061 41.84 233.069 41.84ZM243.664 44L249.856 35.072L243.664 26.144H246.94L251.944 33.524L256.984 26.144H260.224L254.032 35.072L260.224 44H256.984L251.944 36.62L246.94 44H243.664Z" fill="#102251"/>
</svg>
