<svg width="136" height="32" viewBox="0 0 136 32" fill="none" xmlns="http://www.w3.org/2000/svg">
<path d="M6.76892 22V9.4H9.07292V22H6.76892Z" fill="#102251"/>
<path d="M11.461 22V13.072H13.495L13.675 14.584C13.951 14.056 14.347 13.636 14.863 13.324C15.391 13.012 16.009 12.856 16.717 12.856C17.821 12.856 18.679 13.204 19.291 13.9C19.903 14.596 20.209 15.616 20.209 16.96V22H17.905V17.176C17.905 16.408 17.749 15.82 17.437 15.412C17.125 15.004 16.639 14.8 15.979 14.8C15.331 14.8 14.797 15.028 14.377 15.484C13.969 15.94 13.765 16.576 13.765 17.392V22H11.461Z" fill="#102251"/>
<path d="M24.7363 22L21.4603 13.072H23.8723L26.1403 19.822L28.4083 13.072H30.8203L27.5263 22H24.7363Z" fill="#102251"/>
<path d="M36.1721 22.216C35.2721 22.216 34.4741 22.024 33.7781 21.64C33.0821 21.256 32.5361 20.716 32.1401 20.02C31.7441 19.324 31.5461 18.52 31.5461 17.608C31.5461 16.684 31.7381 15.862 32.1221 15.142C32.5181 14.422 33.0581 13.864 33.7421 13.468C34.4381 13.06 35.2541 12.856 36.1901 12.856C37.0661 12.856 37.8401 13.048 38.5121 13.432C39.1841 13.816 39.7061 14.344 40.0781 15.016C40.4621 15.676 40.6541 16.414 40.6541 17.23C40.6541 17.362 40.6481 17.5 40.6361 17.644C40.6361 17.788 40.6301 17.938 40.6181 18.094H33.8321C33.8801 18.79 34.1201 19.336 34.5521 19.732C34.9961 20.128 35.5301 20.326 36.1541 20.326C36.6221 20.326 37.0121 20.224 37.3241 20.02C37.6481 19.804 37.8881 19.528 38.0441 19.192H40.3841C40.2161 19.756 39.9341 20.272 39.5381 20.74C39.1541 21.196 38.6741 21.556 38.0981 21.82C37.5341 22.084 36.8921 22.216 36.1721 22.216ZM36.1901 14.728C35.6261 14.728 35.1281 14.89 34.6961 15.214C34.2641 15.526 33.9881 16.006 33.8681 16.654H38.3141C38.2781 16.066 38.0621 15.598 37.6661 15.25C37.2701 14.902 36.7781 14.728 36.1901 14.728Z" fill="#102251"/>
<path d="M46.2819 22.216C45.4899 22.216 44.7939 22.09 44.1939 21.838C43.5939 21.574 43.1139 21.214 42.7539 20.758C42.3939 20.302 42.1779 19.774 42.1059 19.174H44.4279C44.4999 19.522 44.6919 19.822 45.0039 20.074C45.3279 20.314 45.7419 20.434 46.2459 20.434C46.7499 20.434 47.1159 20.332 47.3439 20.128C47.5839 19.924 47.7039 19.69 47.7039 19.426C47.7039 19.042 47.5359 18.784 47.1999 18.652C46.8639 18.508 46.3959 18.37 45.7959 18.238C45.4119 18.154 45.0219 18.052 44.6259 17.932C44.2299 17.812 43.8639 17.662 43.5279 17.482C43.2039 17.29 42.9399 17.05 42.7359 16.762C42.5319 16.462 42.4299 16.096 42.4299 15.664C42.4299 14.872 42.7419 14.206 43.3659 13.666C44.0019 13.126 44.8899 12.856 46.0299 12.856C47.0859 12.856 47.9259 13.102 48.5499 13.594C49.1859 14.086 49.5639 14.764 49.6839 15.628H47.5059C47.3739 14.968 46.8759 14.638 46.0119 14.638C45.5799 14.638 45.2439 14.722 45.0039 14.89C44.7759 15.058 44.6619 15.268 44.6619 15.52C44.6619 15.784 44.8359 15.994 45.1839 16.15C45.5319 16.306 45.9939 16.45 46.5699 16.582C47.1939 16.726 47.7639 16.888 48.2799 17.068C48.8079 17.236 49.2279 17.494 49.5399 17.842C49.8519 18.178 50.0079 18.664 50.0079 19.3C50.0199 19.852 49.8759 20.35 49.5759 20.794C49.2759 21.238 48.8439 21.586 48.2799 21.838C47.7159 22.09 47.0499 22.216 46.2819 22.216Z" fill="#102251"/>
<path d="M55.7457 22C54.8097 22 54.0597 21.772 53.4957 21.316C52.9317 20.86 52.6497 20.05 52.6497 18.886V14.998H51.1197V13.072H52.6497L52.9197 10.678H54.9537V13.072H57.3657V14.998H54.9537V18.904C54.9537 19.336 55.0437 19.636 55.2237 19.804C55.4157 19.96 55.7397 20.038 56.1957 20.038H57.3117V22H55.7457Z" fill="#102251"/>
<path d="M63.5198 22.216C62.5958 22.216 61.7918 22.048 61.1078 21.712C60.4238 21.376 59.8958 20.908 59.5238 20.308C59.1518 19.708 58.9658 19.012 58.9658 18.22H60.5498C60.5498 18.712 60.6638 19.168 60.8918 19.588C61.1198 19.996 61.4498 20.326 61.8818 20.578C62.3258 20.818 62.8718 20.938 63.5198 20.938C64.3718 20.938 65.0318 20.734 65.4998 20.326C65.9678 19.918 66.2018 19.408 66.2018 18.796C66.2018 18.292 66.0938 17.89 65.8778 17.59C65.6618 17.278 65.3678 17.026 64.9958 16.834C64.6358 16.642 64.2158 16.474 63.7358 16.33C63.2678 16.186 62.7758 16.024 62.2598 15.844C61.2878 15.508 60.5678 15.094 60.0998 14.602C59.6318 14.098 59.3978 13.444 59.3978 12.64C59.3858 11.968 59.5418 11.374 59.8658 10.858C60.1898 10.33 60.6458 9.922 61.2338 9.634C61.8338 9.334 62.5418 9.184 63.3578 9.184C64.1618 9.184 64.8578 9.334 65.4458 9.634C66.0458 9.934 66.5078 10.348 66.8318 10.876C67.1678 11.404 67.3418 12.004 67.3538 12.676H65.7698C65.7698 12.328 65.6798 11.986 65.4998 11.65C65.3198 11.302 65.0438 11.02 64.6718 10.804C64.3118 10.588 63.8558 10.48 63.3038 10.48C62.6198 10.468 62.0558 10.642 61.6118 11.002C61.1798 11.362 60.9638 11.86 60.9638 12.496C60.9638 13.036 61.1138 13.45 61.4138 13.738C61.7258 14.026 62.1578 14.266 62.7098 14.458C63.2618 14.638 63.8978 14.848 64.6178 15.088C65.2178 15.304 65.7578 15.556 66.2378 15.844C66.7178 16.132 67.0898 16.504 67.3538 16.96C67.6298 17.416 67.7678 17.998 67.7678 18.706C67.7678 19.306 67.6118 19.876 67.2998 20.416C66.9878 20.944 66.5138 21.376 65.8778 21.712C65.2538 22.048 64.4678 22.216 63.5198 22.216Z" fill="#102251"/>
<path d="M72.7921 22.216C72.0481 22.216 71.4301 22.09 70.9381 21.838C70.4461 21.586 70.0801 21.25 69.8401 20.83C69.6001 20.41 69.4801 19.954 69.4801 19.462C69.4801 18.55 69.8281 17.848 70.5241 17.356C71.2201 16.864 72.1681 16.618 73.3681 16.618H75.7801V16.51C75.7801 15.73 75.5761 15.142 75.1681 14.746C74.7601 14.338 74.2141 14.134 73.5301 14.134C72.9421 14.134 72.4321 14.284 72.0001 14.584C71.5801 14.872 71.3161 15.298 71.2081 15.862H69.6601C69.7201 15.214 69.9361 14.668 70.3081 14.224C70.6921 13.78 71.1661 13.444 71.7301 13.216C72.2941 12.976 72.8941 12.856 73.5301 12.856C74.7781 12.856 75.7141 13.192 76.3381 13.864C76.9741 14.524 77.2921 15.406 77.2921 16.51V22H75.9421L75.8521 20.398C75.6001 20.902 75.2281 21.334 74.7361 21.694C74.2561 22.042 73.6081 22.216 72.7921 22.216ZM73.0261 20.938C73.6021 20.938 74.0941 20.788 74.5021 20.488C74.9221 20.188 75.2401 19.798 75.4561 19.318C75.6721 18.838 75.7801 18.334 75.7801 17.806V17.788H73.4941C72.6061 17.788 71.9761 17.944 71.6041 18.256C71.2441 18.556 71.0641 18.934 71.0641 19.39C71.0641 19.858 71.2321 20.236 71.5681 20.524C71.9161 20.8 72.4021 20.938 73.0261 20.938Z" fill="#102251"/>
<path d="M79.5604 22V13.072H80.9284L81.0184 14.674C81.3064 14.11 81.7204 13.666 82.2604 13.342C82.8004 13.018 83.4124 12.856 84.0964 12.856C85.1524 12.856 85.9924 13.18 86.6164 13.828C87.2524 14.464 87.5704 15.448 87.5704 16.78V22H86.0584V16.942C86.0584 15.082 85.2904 14.152 83.7544 14.152C82.9864 14.152 82.3444 14.434 81.8284 14.998C81.3244 15.55 81.0724 16.342 81.0724 17.374V22H79.5604Z" fill="#102251"/>
<path d="M93.9112 22.216C93.0232 22.216 92.2431 22.012 91.5711 21.604C90.9111 21.196 90.3951 20.638 90.0231 19.93C89.6631 19.222 89.4831 18.418 89.4831 17.518C89.4831 16.618 89.6691 15.82 90.0411 15.124C90.4131 14.416 90.9292 13.864 91.5892 13.468C92.2492 13.06 93.0291 12.856 93.9291 12.856C94.6611 12.856 95.3091 13.006 95.8731 13.306C96.4371 13.606 96.8752 14.026 97.1872 14.566V9.04H98.6992V22H97.3311L97.1872 20.524C96.8992 20.956 96.4851 21.346 95.9451 21.694C95.4051 22.042 94.7272 22.216 93.9112 22.216ZM94.0732 20.902C94.6732 20.902 95.2012 20.764 95.6572 20.488C96.1252 20.2 96.4851 19.804 96.7371 19.3C97.0011 18.796 97.1332 18.208 97.1332 17.536C97.1332 16.864 97.0011 16.276 96.7371 15.772C96.4851 15.268 96.1252 14.878 95.6572 14.602C95.2012 14.314 94.6732 14.17 94.0732 14.17C93.4852 14.17 92.9572 14.314 92.4892 14.602C92.0332 14.878 91.6732 15.268 91.4092 15.772C91.1572 16.276 91.0312 16.864 91.0312 17.536C91.0312 18.208 91.1572 18.796 91.4092 19.3C91.6732 19.804 92.0332 20.2 92.4892 20.488C92.9572 20.764 93.4852 20.902 94.0732 20.902Z" fill="#102251"/>
<path d="M105.934 22.216C105.202 22.216 104.548 22.066 103.972 21.766C103.408 21.466 102.976 21.046 102.676 20.506L102.532 22H101.164V9.04H102.676V14.548C102.964 14.116 103.372 13.726 103.9 13.378C104.44 13.03 105.124 12.856 105.952 12.856C106.84 12.856 107.614 13.06 108.274 13.468C108.934 13.876 109.444 14.434 109.804 15.142C110.176 15.85 110.362 16.654 110.362 17.554C110.362 18.454 110.176 19.258 109.804 19.966C109.444 20.662 108.928 21.214 108.256 21.622C107.596 22.018 106.822 22.216 105.934 22.216ZM105.772 20.902C106.372 20.902 106.9 20.764 107.356 20.488C107.812 20.2 108.172 19.804 108.436 19.3C108.7 18.796 108.832 18.208 108.832 17.536C108.832 16.864 108.7 16.276 108.436 15.772C108.172 15.268 107.812 14.878 107.356 14.602C106.9 14.314 106.372 14.17 105.772 14.17C105.172 14.17 104.644 14.314 104.188 14.602C103.732 14.878 103.372 15.268 103.108 15.772C102.844 16.276 102.712 16.864 102.712 17.536C102.712 18.208 102.844 18.796 103.108 19.3C103.372 19.804 103.732 20.2 104.188 20.488C104.644 20.764 105.172 20.902 105.772 20.902Z" fill="#102251"/>
<path d="M116.535 22.216C115.695 22.216 114.939 22.024 114.267 21.64C113.595 21.256 113.061 20.716 112.665 20.02C112.281 19.312 112.089 18.484 112.089 17.536C112.089 16.588 112.287 15.766 112.683 15.07C113.079 14.362 113.613 13.816 114.285 13.432C114.969 13.048 115.731 12.856 116.571 12.856C117.411 12.856 118.167 13.048 118.839 13.432C119.511 13.816 120.039 14.362 120.423 15.07C120.819 15.766 121.017 16.588 121.017 17.536C121.017 18.484 120.819 19.312 120.423 20.02C120.027 20.716 119.487 21.256 118.803 21.64C118.131 22.024 117.375 22.216 116.535 22.216ZM116.535 20.92C117.051 20.92 117.531 20.794 117.975 20.542C118.419 20.29 118.779 19.912 119.055 19.408C119.331 18.904 119.469 18.28 119.469 17.536C119.469 16.792 119.331 16.168 119.055 15.664C118.791 15.16 118.437 14.782 117.993 14.53C117.549 14.278 117.075 14.152 116.571 14.152C116.055 14.152 115.575 14.278 115.131 14.53C114.687 14.782 114.327 15.16 114.051 15.664C113.775 16.168 113.637 16.792 113.637 17.536C113.637 18.28 113.775 18.904 114.051 19.408C114.327 19.912 114.681 20.29 115.113 20.542C115.557 20.794 116.031 20.92 116.535 20.92Z" fill="#102251"/>
<path d="M121.832 22L124.928 17.536L121.832 13.072H123.47L125.972 16.762L128.492 13.072H130.112L127.016 17.536L130.112 22H128.492L125.972 18.31L123.47 22H121.832Z" fill="#102251"/>
</svg>
