<svg width="64" height="64" viewBox="0 0 64 64" fill="none" xmlns="http://www.w3.org/2000/svg">
<path d="M6 34.7191L31.0859 48.9378V36.7503L6 25.5784V34.7191ZM58 25.5803L32.9141 36.7503V48.9378L58 34.7714V25.5803ZM52.2276 26.6127L56.1643 24.8719L47.5224 21.5967L46.7226 23.7582C48.2996 24.456 50.1808 25.4529 52.2276 26.6127Z" fill="#102251"/>
<path d="M34.9366 16.6463L31.9516 15.5L7.83422 24.8681L11.7633 26.584C18.2188 22.7366 25.8557 20.0813 33.169 20.5012L34.9366 16.6463Z" fill="#102251"/>
<path fill-rule="evenodd" clip-rule="evenodd" d="M40.9375 22.7629C42.2837 22.7629 43.375 21.6715 43.375 20.3254C43.375 18.9792 42.2837 17.8879 40.9375 17.8879C39.5913 17.8879 38.5 18.9792 38.5 20.3254C38.5 21.6715 39.5913 22.7629 40.9375 22.7629ZM40.9375 24.3879C43.1812 24.3879 45 22.569 45 20.3254C45 18.0817 43.1812 16.2629 40.9375 16.2629C38.6938 16.2629 36.875 18.0817 36.875 20.3254C36.875 22.569 38.6938 24.3879 40.9375 24.3879Z" fill="#102251"/>
</svg>
