<svg width="128" height="128" viewBox="0 0 128 128" fill="none" xmlns="http://www.w3.org/2000/svg">
<rect width="128" height="128" fill="white"/>
<path d="M12 69.4381L62.1719 97.8756V73.5006L12 51.1569V69.4381ZM116 51.1606L65.8281 73.5006V97.8756L116 69.5428V51.1606ZM104.455 53.2253L112.329 49.7438L95.0448 43.1934L93.4452 47.5165C96.5991 48.912 100.362 50.9058 104.455 53.2253Z" fill="#102251"/>
<path d="M69.8732 33.2927L63.9031 31L15.6684 49.7362L23.5265 53.168C36.4376 45.4733 51.7113 40.1626 66.338 41.0025L69.8732 33.2927Z" fill="#102251"/>
<path fill-rule="evenodd" clip-rule="evenodd" d="M81.875 45.5257C84.5674 45.5257 86.75 43.3431 86.75 40.6507C86.75 37.9583 84.5674 35.7757 81.875 35.7757C79.1826 35.7757 77 37.9583 77 40.6507C77 43.3431 79.1826 45.5257 81.875 45.5257ZM81.875 48.7757C86.3623 48.7757 90 45.138 90 40.6507C90 36.1634 86.3623 32.5257 81.875 32.5257C77.3877 32.5257 73.75 36.1634 73.75 40.6507C73.75 45.138 77.3877 48.7757 81.875 48.7757Z" fill="#102251"/>
</svg>
